<svg width="73" height="159" viewBox="0 0 73 159" fill="none" xmlns="http://www.w3.org/2000/svg">
<path d="M72.0001 9.91113C72.0001 3.89863 66.3007 -0.480066 60.4912 1.06921L8.42324 14.9547C4.04577 16.1221 1 20.0866 1 24.6171V148.434C1 153.957 5.47715 158.434 11 158.434H16.1056C17.0307 158.434 17.9514 158.306 18.8412 158.053L65.2872 144.844C69.2596 143.714 72.0001 140.085 72.0001 135.955V135.955C72.0001 129.886 66.2487 125.465 60.3834 127.025L32.2916 134.499C26.338 136.083 20.5 131.595 20.5 125.434V125.434V88.9344V71.7225V38.3974C20.5 33.8706 23.541 29.9084 27.9138 28.7376L65.2158 18.7507C69.2173 17.6794 72.0001 14.0536 72.0001 9.91113V9.91113Z" fill="#2C2C2C"/>
<path d="M50.5001 75.3708C50.5001 70.2481 45.7888 66.4219 40.775 67.4728L20.5 71.7225V88.9344L44.3141 83.2175C47.9422 82.3466 50.5001 79.102 50.5001 75.3708V75.3708Z" fill="#2C2C2C"/>
<path d="M20.5 71.7225V38.3974C20.5 33.8706 23.541 29.9084 27.9138 28.7376L65.2158 18.7507C69.2173 17.6794 72.0001 14.0536 72.0001 9.91113V9.91113C72.0001 3.89863 66.3007 -0.480066 60.4912 1.06921L8.42324 14.9547C4.04577 16.1221 1 20.0866 1 24.6171V148.434C1 153.957 5.47715 158.434 11 158.434H16.1056C17.0307 158.434 17.9514 158.306 18.8412 158.053L65.2872 144.844C69.2596 143.714 72.0001 140.085 72.0001 135.955V135.955C72.0001 129.886 66.2487 125.465 60.3834 127.025L32.2916 134.499C26.338 136.083 20.5 131.595 20.5 125.434V125.434V88.9344M20.5 71.7225L40.775 67.4728C45.7888 66.4219 50.5001 70.2481 50.5001 75.3708V75.3708C50.5001 79.102 47.9422 82.3466 44.3141 83.2175L20.5 88.9344M20.5 71.7225V88.9344" stroke="#2C2C2C"/>
</svg>
