<svg width="107" height="188" viewBox="0 0 107 188" fill="none" xmlns="http://www.w3.org/2000/svg">
<path d="M106 11.3261C106 4.6616 99.6039 -0.138085 93.205 1.72464L8.205 26.4682C3.93584 27.711 1 31.6233 1 36.0697V176.566C1 182.088 5.47715 186.566 11 186.566H19C24.5228 186.566 29 182.088 29 176.566V105.066V87.0656V52.5617C29 48.1191 31.9309 44.2092 36.1952 42.9631L98.8048 24.6681C103.069 23.4221 106 19.5121 106 15.0695V11.3261Z" fill="#2C2C2C"/>
<path d="M69.0002 87.545C69.0002 81.5457 63.2529 77.2179 57.4871 78.8756L29 87.0656V105.066L62.2852 96.2661C66.2432 95.2197 69.0002 91.6391 69.0002 87.545V87.545Z" fill="#2C2C2C"/>
<path d="M29 87.0656V52.5617C29 48.1191 31.9309 44.2092 36.1952 42.9631L98.8048 24.6681C103.069 23.4221 106 19.5121 106 15.0695V11.3261C106 4.6616 99.6039 -0.138085 93.205 1.72464L8.205 26.4682C3.93584 27.711 1 31.6233 1 36.0697V176.566C1 182.088 5.47715 186.566 11 186.566H19C24.5228 186.566 29 182.088 29 176.566V105.066M29 87.0656L57.4871 78.8756C63.2529 77.2179 69.0002 81.5457 69.0002 87.545V87.545C69.0002 91.6391 66.2432 95.2197 62.2852 96.2661L29 105.066M29 87.0656V105.066" stroke="#2C2C2C"/>
</svg>
