<svg width="172" height="229" viewBox="0 0 172 229" fill="none" xmlns="http://www.w3.org/2000/svg">
<path d="M171 11.3063C171 4.64772 164.615 -0.151097 158.219 1.70081L8.21874 45.1333C3.94271 46.3714 1 50.2871 1 54.7388V70.9923C1 77.6282 7.34497 82.4236 13.729 80.6127L67.7485 65.2891L108.5 53.7292L163.729 38.0625C168.031 36.8422 171 32.9139 171 28.4421V11.3063Z" fill="#2C2C2C"/>
<path d="M100.151 228.142C105.713 228.142 110.206 223.603 110.15 218.041L108.5 53.7292L67.7485 65.2891L69.3935 218.249C69.4524 223.73 73.912 228.142 79.3929 228.142H100.151Z" fill="#2C2C2C"/>
<path d="M108.5 53.7292L163.729 38.0625C168.031 36.8422 171 32.9139 171 28.4421V11.3063C171 4.64772 164.615 -0.151097 158.219 1.70081L8.21874 45.1333C3.94271 46.3714 1 50.2871 1 54.7388V70.9923C1 77.6282 7.34497 82.4236 13.729 80.6127L67.7485 65.2891M108.5 53.7292L110.15 218.041C110.206 223.603 105.713 228.142 100.151 228.142H79.3929C73.912 228.142 69.4524 223.73 69.3935 218.249L67.7485 65.2891M108.5 53.7292L67.7485 65.2891" stroke="#2C2C2C"/>
</svg>
