<svg width="1000" height="1000" viewBox="0 0 1000 1000" fill="none" xmlns="http://www.w3.org/2000/svg">
<g clip-path="url(#clip0)">
<rect x="-42" y="-42" width="1084" height="1084" fill="white"/>
<path d="M544.894 209.974C544.894 191.359 527.056 177.943 509.19 183.12L90.1655 304.545C78.2204 308.006 70 318.953 70 331.399V376.839C70 395.391 87.7246 408.797 105.558 403.734L256.461 360.894L370.301 328.576L524.583 284.777C536.6 281.365 544.894 270.383 544.894 257.881V209.974Z" fill="#2C2C2C"/>
<path d="M346.976 816.182C362.514 816.182 375.066 803.493 374.91 787.944L370.301 328.576L256.461 360.894L261.057 788.525C261.222 803.847 273.679 816.182 288.99 816.182H346.976Z" fill="#2C2C2C"/>
<path d="M775.357 328.083C775.357 309.451 757.489 296.033 739.614 301.24L502.167 370.416C490.241 373.89 482.04 384.828 482.04 397.259V790.043C482.04 805.483 494.547 818 509.975 818H532.323C547.751 818 560.258 805.483 560.258 790.043V590.151V539.828V443.365C560.258 430.945 568.445 420.014 580.357 416.531L755.257 365.383C767.169 361.9 775.357 350.969 775.357 338.548V328.083Z" fill="#2C2C2C"/>
<path d="M671.998 541.168C671.998 524.396 655.943 512.297 639.836 516.931L560.258 539.828V590.151L653.24 565.55C664.296 562.624 671.998 552.614 671.998 541.168Z" fill="#2C2C2C"/>
<path d="M929 400.955C929 384.146 913.079 371.905 896.85 376.236L751.398 415.056C739.17 418.319 730.662 429.403 730.662 442.069V788.225C730.662 803.665 743.168 816.182 758.597 816.182H772.859C775.443 816.182 778.015 815.823 780.501 815.115L910.247 778.186C921.345 775.027 929 764.883 929 753.337C929 736.369 912.933 724.008 896.549 728.371L818.075 749.266C801.443 753.694 785.135 741.147 785.135 723.924V621.881V573.761V480.594C785.135 467.939 793.63 456.862 805.845 453.589L910.048 425.668C921.226 422.673 929 412.536 929 400.955Z" fill="#2C2C2C"/>
<path d="M868.94 583.961C868.94 569.639 855.779 558.942 841.773 561.88L785.135 573.761V621.881L851.659 605.898C861.794 603.463 868.94 594.392 868.94 583.961Z" fill="#2C2C2C"/>
<path d="M370.301 328.576L524.583 284.777C536.6 281.365 544.894 270.383 544.894 257.881V209.974C544.894 191.359 527.056 177.943 509.19 183.12L90.1655 304.545C78.2204 308.006 70 318.953 70 331.399V376.839C70 395.391 87.7246 408.797 105.558 403.734L256.461 360.894M370.301 328.576L374.91 787.944C375.066 803.493 362.514 816.182 346.976 816.182H288.99C273.679 816.182 261.222 803.847 261.057 788.525L256.461 360.894M370.301 328.576L256.461 360.894M560.258 539.828V443.365C560.258 430.945 568.445 420.014 580.357 416.531L755.257 365.383C767.169 361.9 775.357 350.969 775.357 338.548V328.083C775.357 309.451 757.489 296.033 739.614 301.24L502.167 370.416C490.241 373.89 482.04 384.828 482.04 397.259V790.043C482.04 805.483 494.547 818 509.975 818H532.323C547.751 818 560.258 805.483 560.258 790.043V590.151M560.258 539.828L639.836 516.931C655.943 512.297 671.998 524.396 671.998 541.168C671.998 552.614 664.296 562.624 653.24 565.55L560.258 590.151M560.258 539.828V590.151M785.135 573.761V480.594C785.135 467.939 793.63 456.862 805.845 453.589L910.048 425.668C921.226 422.673 929 412.536 929 400.955C929 384.146 913.079 371.905 896.85 376.236L751.398 415.056C739.17 418.319 730.662 429.403 730.662 442.069V788.225C730.662 803.665 743.168 816.182 758.597 816.182H772.859C775.443 816.182 778.015 815.823 780.501 815.115L910.247 778.186C921.345 775.027 929 764.883 929 753.337C929 736.369 912.933 724.008 896.549 728.371L818.075 749.266C801.443 753.694 785.135 741.147 785.135 723.924V621.881M785.135 573.761L841.773 561.88C855.779 558.942 868.94 569.639 868.94 583.961C868.94 594.392 861.794 603.463 851.659 605.898L785.135 621.881M785.135 573.761V621.881" stroke="#2C2C2C"/>
</g>
<defs>
<clipPath id="clip0">
<rect width="1000" height="1000" fill="white"/>
</clipPath>
</defs>
</svg>
