<svg width="309" height="230" viewBox="0 0 309 230" fill="#000000" xmlns="http://www.w3.org/2000/svg">
<path d="M171 11.3063C171 4.64772 164.615 -0.151097 158.219 1.70081L8.21874 45.1333C3.94271 46.3714 1 50.2871 1 54.7388V70.9923C1 77.6282 7.34497 82.4236 13.729 80.6127L67.7485 65.2891L108.5 53.7292L163.729 38.0625C168.031 36.8422 171 32.9139 171 28.4421V11.3063Z" fill="#2c2c2c"/>
<path d="M100.151 228.142C105.713 228.142 110.206 223.603 110.15 218.041L108.5 53.7292L67.7485 65.2891L69.3935 218.249C69.4524 223.73 73.912 228.142 79.3929 228.142H100.151Z" fill="#2c2c2c"/>
<path d="M253.5 53.5528C253.5 46.8883 247.104 42.0886 240.705 43.9514L155.705 68.695C151.436 69.9377 148.5 73.85 148.5 78.2964V218.792C148.5 224.315 152.977 228.792 158.5 228.792H166.5C172.023 228.792 176.5 224.315 176.5 218.792V147.292V129.292V94.7885C176.5 90.3459 179.431 86.4359 183.695 85.1898L246.305 66.8948C250.569 65.6488 253.5 61.7388 253.5 57.2962V53.5528Z" fill="#2c2c2c"/>
<path d="M216.5 129.772C216.5 123.772 210.753 119.445 204.987 121.102L176.5 129.292V147.292L209.785 138.493C213.743 137.446 216.5 133.866 216.5 129.772Z" fill="#2c2c2c"/>
<path d="M308.5 79.6187C308.5 73.6062 302.801 69.2275 296.991 70.7768L244.923 84.6623C240.546 85.8297 237.5 89.7942 237.5 94.3246V218.142C237.5 223.665 241.977 228.142 247.5 228.142H252.606C253.531 228.142 254.451 228.014 255.341 227.76L301.787 214.551C305.76 213.421 308.5 209.793 308.5 205.663C308.5 199.593 302.749 195.172 296.883 196.733L268.792 204.207C262.838 205.791 257 201.303 257 195.142V158.642V141.43V108.105C257 103.578 260.041 99.6159 264.414 98.4452L301.716 88.4583C305.717 87.387 308.5 83.7611 308.5 79.6187Z" fill="#2c2c2c"/>
<path d="M287 145.078C287 139.956 282.289 136.129 277.275 137.18L257 141.43V158.642L280.814 152.925C284.442 152.054 287 148.81 287 145.078Z" fill="#2c2c2c"/>
<path d="M108.5 53.7292L163.729 38.0625C168.031 36.8422 171 32.9139 171 28.4421V11.3063C171 4.64772 164.615 -0.151097 158.219 1.70081L8.21874 45.1333C3.94271 46.3714 1 50.2871 1 54.7388V70.9923C1 77.6282 7.34497 82.4236 13.729 80.6127L67.7485 65.2891M108.5 53.7292L110.15 218.041C110.206 223.603 105.713 228.142 100.151 228.142H79.3929C73.912 228.142 69.4524 223.73 69.3935 218.249L67.7485 65.2891M108.5 53.7292L67.7485 65.2891M176.5 129.292V94.7885C176.5 90.3459 179.431 86.4359 183.695 85.1898L246.305 66.8948C250.569 65.6488 253.5 61.7388 253.5 57.2962V53.5528C253.5 46.8883 247.104 42.0886 240.705 43.9514L155.705 68.695C151.436 69.9377 148.5 73.85 148.5 78.2964V218.792C148.5 224.315 152.977 228.792 158.5 228.792H166.5C172.023 228.792 176.5 224.315 176.5 218.792V147.292M176.5 129.292L204.987 121.102C210.753 119.445 216.5 123.772 216.5 129.772C216.5 133.866 213.743 137.446 209.785 138.493L176.5 147.292M176.5 129.292V147.292M257 141.43V108.105C257 103.578 260.041 99.6159 264.414 98.4452L301.716 88.4583C305.717 87.387 308.5 83.7611 308.5 79.6187C308.5 73.6062 302.801 69.2275 296.991 70.7768L244.923 84.6623C240.546 85.8297 237.5 89.7942 237.5 94.3246V218.142C237.5 223.665 241.977 228.142 247.5 228.142H252.606C253.531 228.142 254.451 228.014 255.341 227.76L301.787 214.551C305.76 213.421 308.5 209.793 308.5 205.663C308.5 199.593 302.749 195.172 296.883 196.733L268.792 204.207C262.838 205.791 257 201.303 257 195.142V158.642M257 141.43L277.275 137.18C282.289 136.129 287 139.956 287 145.078C287 148.81 284.442 152.054 280.814 152.925L257 158.642M257 141.43V158.642" stroke="#2c2c2c"/>
</svg>
