<svg width="1006" height="231" viewBox="0 0 1006 231" fill="none" xmlns="http://www.w3.org/2000/svg">
<path d="M171 13.3063C171 6.64772 164.615 1.8489 158.219 3.70081L8.21874 47.1333C3.94271 48.3714 1 52.2871 1 56.7388V72.9923C1 79.6282 7.34497 84.4236 13.729 82.6127L67.7485 67.2891L108.5 55.7292L163.729 40.0625C168.031 38.8422 171 34.9139 171 30.4421V13.3063Z" fill="#2C2C2C"/>
<path d="M100.151 230.142C105.713 230.142 110.206 225.603 110.15 220.041L108.5 55.7292L67.7485 67.2891L69.3935 220.249C69.4524 225.73 73.912 230.142 79.3929 230.142H100.151Z" fill="#2C2C2C"/>
<path d="M108.5 55.7292L163.729 40.0625C168.031 38.8422 171 34.9139 171 30.4421V13.3063C171 6.64772 164.615 1.8489 158.219 3.70081L8.21874 47.1333C3.94271 48.3714 1 52.2871 1 56.7388V72.9923C1 79.6282 7.34497 84.4236 13.729 82.6127L67.7485 67.2891M108.5 55.7292L110.15 220.041C110.206 225.603 105.713 230.142 100.151 230.142H79.3929C73.912 230.142 69.4524 225.73 69.3935 220.249L67.7485 67.2891M108.5 55.7292L67.7485 67.2891" stroke="#2C2C2C"/>
<path d="M167.488 170.08C171.712 170.08 175.061 171.317 177.536 173.792C180.053 176.224 181.312 179.787 181.312 184.48V204H176.768V184.928C176.768 181.429 175.893 178.763 174.144 176.928C172.395 175.093 169.899 174.176 166.656 174.176C163.029 174.176 160.149 175.264 158.016 177.44C155.925 179.573 154.88 182.539 154.88 186.336V204H150.336V156.512H154.88V176.224C156.117 174.261 157.824 172.747 160 171.68C162.176 170.613 164.672 170.08 167.488 170.08ZM223.086 188.576H194.926C195.182 192.075 196.526 194.912 198.958 197.088C201.39 199.221 204.462 200.288 208.174 200.288C210.264 200.288 212.184 199.925 213.934 199.2C215.683 198.432 217.198 197.323 218.478 195.872L221.038 198.816C219.544 200.608 217.667 201.973 215.406 202.912C213.187 203.851 210.734 204.32 208.046 204.32C204.59 204.32 201.518 203.595 198.83 202.144C196.184 200.651 194.115 198.603 192.622 196C191.128 193.397 190.382 190.453 190.382 187.168C190.382 183.883 191.086 180.939 192.494 178.336C193.944 175.733 195.907 173.707 198.382 172.256C200.899 170.805 203.715 170.08 206.83 170.08C209.944 170.08 212.739 170.805 215.214 172.256C217.688 173.707 219.63 175.733 221.038 178.336C222.446 180.896 223.15 183.84 223.15 187.168L223.086 188.576ZM206.83 173.984C203.587 173.984 200.856 175.029 198.638 177.12C196.462 179.168 195.224 181.856 194.926 185.184H218.798C218.499 181.856 217.24 179.168 215.022 177.12C212.846 175.029 210.115 173.984 206.83 173.984Z" fill="#2C2C2C"/>
<path d="M379 54.3261C379 47.6616 372.604 42.8619 366.205 44.7246L281.205 69.4682C276.936 70.711 274 74.6233 274 79.0697V219.566C274 225.088 278.477 229.566 284 229.566H292C297.523 229.566 302 225.088 302 219.566V148.066V130.066V95.5617C302 91.1191 304.931 87.2092 309.195 85.9631L371.805 67.6681C376.069 66.4221 379 62.5121 379 58.0695V54.3261Z" fill="#2C2C2C"/>
<path d="M342 130.545C342 124.546 336.253 120.218 330.487 121.876L302 130.066V148.066L335.285 139.266C339.243 138.22 342 134.639 342 130.545V130.545Z" fill="#2C2C2C"/>
<path d="M302 130.066V95.5617C302 91.1191 304.931 87.2092 309.195 85.9631L371.805 67.6681C376.069 66.4221 379 62.5121 379 58.0695V54.3261C379 47.6616 372.604 42.8619 366.205 44.7246L281.205 69.4682C276.936 70.711 274 74.6233 274 79.0697V219.566C274 225.088 278.477 229.566 284 229.566H292C297.523 229.566 302 225.088 302 219.566V148.066M302 130.066L330.487 121.876C336.253 120.218 342 124.546 342 130.545V130.545C342 134.639 339.243 138.22 335.285 139.266L302 148.066M302 130.066V148.066" stroke="#2C2C2C"/>
<path d="M366.336 156.512H370.88V204H366.336V156.512ZM411.812 170.336L394.98 208.032C393.614 211.189 392.036 213.429 390.244 214.752C388.452 216.075 386.297 216.736 383.78 216.736C382.158 216.736 380.644 216.48 379.236 215.968C377.828 215.456 376.611 214.688 375.587 213.664L377.7 210.272C379.406 211.979 381.454 212.832 383.844 212.832C385.38 212.832 386.681 212.405 387.748 211.552C388.857 210.699 389.881 209.248 390.82 207.2L392.292 203.936L377.252 170.336H381.988L394.66 198.944L407.332 170.336H411.812ZM418.211 170.336H422.755V204H418.211V170.336ZM420.515 162.976C419.576 162.976 418.787 162.656 418.147 162.016C417.507 161.376 417.187 160.608 417.187 159.712C417.187 158.859 417.507 158.112 418.147 157.472C418.787 156.832 419.576 156.512 420.515 156.512C421.454 156.512 422.243 156.832 422.883 157.472C423.523 158.069 423.843 158.795 423.843 159.648C423.843 160.587 423.523 161.376 422.883 162.016C422.243 162.656 421.454 162.976 420.515 162.976ZM452.551 170.08C456.775 170.08 460.124 171.317 462.599 173.792C465.116 176.224 466.375 179.787 466.375 184.48V204H461.831V184.928C461.831 181.429 460.956 178.763 459.207 176.928C457.457 175.093 454.961 174.176 451.719 174.176C448.092 174.176 445.212 175.264 443.079 177.44C440.988 179.573 439.943 182.539 439.943 186.336V204H435.399V170.336H439.751V176.544C440.988 174.496 442.695 172.917 444.871 171.808C447.089 170.656 449.649 170.08 452.551 170.08ZM510.004 170.336V199.904C510.004 205.621 508.596 209.845 505.78 212.576C503.007 215.349 498.804 216.736 493.172 216.736C490.057 216.736 487.092 216.267 484.276 215.328C481.503 214.432 479.241 213.173 477.492 211.552L479.796 208.096C481.417 209.547 483.38 210.677 485.684 211.488C488.031 212.299 490.484 212.704 493.044 212.704C497.311 212.704 500.447 211.701 502.452 209.696C504.457 207.733 505.46 204.661 505.46 200.48V196.192C504.052 198.325 502.196 199.947 499.892 201.056C497.631 202.165 495.113 202.72 492.34 202.72C489.183 202.72 486.303 202.037 483.7 200.672C481.14 199.264 479.113 197.323 477.62 194.848C476.169 192.331 475.444 189.493 475.444 186.336C475.444 183.179 476.169 180.363 477.62 177.888C479.113 175.413 481.14 173.493 483.7 172.128C486.26 170.763 489.14 170.08 492.34 170.08C495.199 170.08 497.78 170.656 500.084 171.808C502.388 172.96 504.244 174.624 505.652 176.8V170.336H510.004ZM492.788 198.688C495.22 198.688 497.417 198.176 499.38 197.152C501.343 196.085 502.857 194.613 503.924 192.736C505.033 190.859 505.588 188.725 505.588 186.336C505.588 183.947 505.033 181.835 503.924 180C502.857 178.123 501.343 176.672 499.38 175.648C497.46 174.581 495.263 174.048 492.788 174.048C490.356 174.048 488.159 174.56 486.196 175.584C484.276 176.608 482.761 178.059 481.652 179.936C480.585 181.813 480.052 183.947 480.052 186.336C480.052 188.725 480.585 190.859 481.652 192.736C482.761 194.613 484.276 196.085 486.196 197.152C488.159 198.176 490.356 198.688 492.788 198.688Z" fill="#2C2C2C"/>
<path d="M622 81.9111C622 75.8986 616.301 71.5199 610.491 73.0692L558.423 86.9547C554.046 88.1221 551 92.0866 551 96.6171V220.434C551 225.957 555.477 230.434 561 230.434H566.106C567.031 230.434 567.951 230.306 568.841 230.053L615.287 216.844C619.26 215.714 622 212.085 622 207.955V207.955C622 201.886 616.249 197.465 610.383 199.025L582.292 206.499C576.338 208.083 570.5 203.595 570.5 197.434V197.434V160.934V143.723V110.397C570.5 105.871 573.541 101.908 577.914 100.738L615.216 90.7507C619.217 89.6794 622 86.0536 622 81.9111V81.9111Z" fill="#2C2C2C"/>
<path d="M600.5 147.371C600.5 142.248 595.789 138.422 590.775 139.473L570.5 143.723V160.934L594.314 155.218C597.942 154.347 600.5 151.102 600.5 147.371V147.371Z" fill="#2C2C2C"/>
<path d="M570.5 143.723V110.397C570.5 105.871 573.541 101.908 577.914 100.738L615.216 90.7507C619.217 89.6794 622 86.0536 622 81.9111V81.9111C622 75.8986 616.301 71.5199 610.491 73.0692L558.423 86.9547C554.046 88.1221 551 92.0866 551 96.6171V220.434C551 225.957 555.477 230.434 561 230.434H566.106C567.031 230.434 567.951 230.306 568.841 230.053L615.287 216.844C619.26 215.714 622 212.085 622 207.955V207.955C622 201.886 616.249 197.465 610.383 199.025L582.292 206.499C576.338 208.083 570.5 203.595 570.5 197.434V197.434V160.934M570.5 143.723L590.775 139.473C595.789 138.422 600.5 142.248 600.5 147.371V147.371C600.5 151.102 597.942 154.347 594.314 155.218L570.5 160.934M570.5 143.723V160.934" stroke="#2C2C2C"/>
<path d="M657.488 170.08C661.712 170.08 665.061 171.317 667.536 173.792C670.053 176.224 671.312 179.787 671.312 184.48V204H666.768V184.928C666.768 181.429 665.893 178.763 664.144 176.928C662.395 175.093 659.899 174.176 656.656 174.176C653.029 174.176 650.149 175.264 648.016 177.44C645.925 179.573 644.88 182.539 644.88 186.336V204H640.336V170.336H644.688V176.544C645.925 174.496 647.632 172.917 649.808 171.808C652.027 170.656 654.587 170.08 657.488 170.08ZM714.942 170.336V199.904C714.942 205.621 713.534 209.845 710.718 212.576C707.944 215.349 703.742 216.736 698.11 216.736C694.995 216.736 692.03 216.267 689.214 215.328C686.44 214.432 684.179 213.173 682.43 211.552L684.734 208.096C686.355 209.547 688.318 210.677 690.622 211.488C692.968 212.299 695.422 212.704 697.982 212.704C702.248 212.704 705.384 211.701 707.39 209.696C709.395 207.733 710.398 204.661 710.398 200.48V196.192C708.99 198.325 707.134 199.947 704.83 201.056C702.568 202.165 700.051 202.72 697.278 202.72C694.12 202.72 691.24 202.037 688.638 200.672C686.078 199.264 684.051 197.323 682.558 194.848C681.107 192.331 680.382 189.493 680.382 186.336C680.382 183.179 681.107 180.363 682.558 177.888C684.051 175.413 686.078 173.493 688.638 172.128C691.198 170.763 694.078 170.08 697.278 170.08C700.136 170.08 702.718 170.656 705.022 171.808C707.326 172.96 709.182 174.624 710.59 176.8V170.336H714.942ZM697.726 198.688C700.158 198.688 702.355 198.176 704.318 197.152C706.28 196.085 707.795 194.613 708.862 192.736C709.971 190.859 710.526 188.725 710.526 186.336C710.526 183.947 709.971 181.835 708.862 180C707.795 178.123 706.28 176.672 704.318 175.648C702.398 174.581 700.2 174.048 697.726 174.048C695.294 174.048 693.096 174.56 691.134 175.584C689.214 176.608 687.699 178.059 686.59 179.936C685.523 181.813 684.99 183.947 684.99 186.336C684.99 188.725 685.523 190.859 686.59 192.736C687.699 194.613 689.214 196.085 691.134 197.152C693.096 198.176 695.294 198.688 697.726 198.688ZM727.649 156.512H732.193V204H727.649V156.512ZM744.836 170.336H749.38V204H744.836V170.336ZM747.14 162.976C746.201 162.976 745.412 162.656 744.772 162.016C744.132 161.376 743.812 160.608 743.812 159.712C743.812 158.859 744.132 158.112 744.772 157.472C745.412 156.832 746.201 156.512 747.14 156.512C748.079 156.512 748.868 156.832 749.508 157.472C750.148 158.069 750.468 158.795 750.468 159.648C750.468 160.587 750.148 161.376 749.508 162.016C748.868 162.656 748.079 162.976 747.14 162.976ZM771.048 204.32C768.317 204.32 765.693 203.936 763.176 203.168C760.701 202.357 758.76 201.355 757.352 200.16L759.4 196.576C760.808 197.685 762.578 198.603 764.712 199.328C766.845 200.011 769.064 200.352 771.368 200.352C774.44 200.352 776.701 199.883 778.152 198.944C779.645 197.963 780.392 196.597 780.392 194.848C780.392 193.611 779.986 192.651 779.176 191.968C778.365 191.243 777.341 190.709 776.104 190.368C774.866 189.984 773.224 189.621 771.176 189.28C768.445 188.768 766.248 188.256 764.584 187.744C762.92 187.189 761.49 186.272 760.296 184.992C759.144 183.712 758.568 181.941 758.568 179.68C758.568 176.864 759.741 174.56 762.088 172.768C764.434 170.976 767.698 170.08 771.88 170.08C774.056 170.08 776.232 170.379 778.408 170.976C780.584 171.531 782.376 172.277 783.784 173.216L781.8 176.864C779.026 174.944 775.72 173.984 771.88 173.984C768.978 173.984 766.781 174.496 765.288 175.52C763.837 176.544 763.112 177.888 763.112 179.552C763.112 180.832 763.517 181.856 764.328 182.624C765.181 183.392 766.226 183.968 767.464 184.352C768.701 184.693 770.408 185.056 772.583 185.44C775.272 185.952 777.426 186.464 779.048 186.976C780.669 187.488 782.056 188.363 783.208 189.6C784.36 190.837 784.936 192.544 784.936 194.72C784.936 197.664 783.698 200.011 781.224 201.76C778.792 203.467 775.4 204.32 771.048 204.32ZM810.488 170.08C814.712 170.08 818.061 171.317 820.536 173.792C823.053 176.224 824.312 179.787 824.312 184.48V204H819.768V184.928C819.768 181.429 818.893 178.763 817.144 176.928C815.395 175.093 812.899 174.176 809.656 174.176C806.029 174.176 803.149 175.264 801.016 177.44C798.925 179.573 797.88 182.539 797.88 186.336V204H793.336V156.512H797.88V176.224C799.117 174.261 800.824 172.747 803 171.68C805.176 170.613 807.672 170.08 810.488 170.08ZM878.633 170.08C882.857 170.08 886.163 171.296 888.553 173.728C890.985 176.16 892.201 179.744 892.201 184.48V204H887.657V184.928C887.657 181.429 886.803 178.763 885.097 176.928C883.433 175.093 881.065 174.176 877.993 174.176C874.494 174.176 871.742 175.264 869.737 177.44C867.731 179.573 866.729 182.539 866.729 186.336V204H862.185V184.928C862.185 181.429 861.331 178.763 859.625 176.928C857.961 175.093 855.571 174.176 852.457 174.176C849.001 174.176 846.249 175.264 844.201 177.44C842.195 179.573 841.193 182.539 841.193 186.336V204H836.649V170.336H841.001V176.48C842.195 174.432 843.859 172.853 845.993 171.744C848.126 170.635 850.579 170.08 853.353 170.08C856.169 170.08 858.601 170.677 860.649 171.872C862.739 173.067 864.297 174.837 865.321 177.184C866.558 174.965 868.329 173.237 870.633 172C872.979 170.72 875.646 170.08 878.633 170.08ZM916.3 170.08C920.694 170.08 924.065 171.189 926.412 173.408C928.758 175.584 929.932 178.827 929.932 183.136V204H925.58V198.752C924.556 200.501 923.041 201.867 921.036 202.848C919.073 203.829 916.726 204.32 913.996 204.32C910.241 204.32 907.254 203.424 905.036 201.632C902.817 199.84 901.708 197.472 901.708 194.528C901.708 191.669 902.732 189.365 904.78 187.616C906.87 185.867 910.177 184.992 914.7 184.992H925.388V182.944C925.388 180.043 924.577 177.845 922.956 176.352C921.334 174.816 918.966 174.048 915.852 174.048C913.718 174.048 911.67 174.411 909.708 175.136C907.745 175.819 906.06 176.779 904.652 178.016L902.604 174.624C904.31 173.173 906.358 172.064 908.748 171.296C911.137 170.485 913.654 170.08 916.3 170.08ZM914.7 200.736C917.26 200.736 919.457 200.16 921.292 199.008C923.126 197.813 924.492 196.107 925.388 193.888V188.384H914.828C909.068 188.384 906.188 190.389 906.188 194.4C906.188 196.363 906.934 197.92 908.428 199.072C909.921 200.181 912.012 200.736 914.7 200.736ZM959.426 170.08C963.65 170.08 966.999 171.317 969.474 173.792C971.991 176.224 973.25 179.787 973.25 184.48V204H968.706V184.928C968.706 181.429 967.831 178.763 966.082 176.928C964.332 175.093 961.836 174.176 958.594 174.176C954.967 174.176 952.087 175.264 949.954 177.44C947.863 179.573 946.818 182.539 946.818 186.336V204H942.274V170.336H946.626V176.544C947.863 174.496 949.57 172.917 951.746 171.808C953.964 170.656 956.524 170.08 959.426 170.08Z" fill="#2C2C2C"/>
</svg>
