<?xml version="1.0" encoding="UTF-8" standalone="no"?>
<!DOCTYPE svg PUBLIC "-//W3C//DTD SVG 1.1//EN" "http://www.w3.org/Graphics/SVG/1.1/DTD/svg11.dtd">
<svg width="100%" height="100%" viewBox="0 0 2000 1000" version="1.1" xmlns="http://www.w3.org/2000/svg" xmlns:xlink="http://www.w3.org/1999/xlink" xml:space="preserve" xmlns:serif="http://www.serif.com/" style="fill-rule:evenodd;clip-rule:evenodd;stroke-linejoin:round;stroke-miterlimit:2;">
    <g id="TFE-Long" serif:id="TFE Long" transform="matrix(2.18247,5.34551e-16,-5.34551e-16,2.18247,-1873.65,-261.833)">
        <g id="ENGLISHMAN" transform="matrix(1.36602,0,0,1.36602,-444.776,-790.095)">
            <g id="N" transform="matrix(0.732054,0,0,0.732054,910.867,313.03)">
                <path d="M915.349,647.325L915.349,598.458L930.23,594.471L930.23,643.338L940.53,640.578L940.53,584.578L905.049,594.085L905.049,650.085L915.349,647.325Z" style="fill:rgb(1,0,0);"/>
            </g>
            <g id="A" transform="matrix(0.732054,0,0,0.732054,910.867,313.03)">
                <path d="M883.157,599.951L883.157,599.965L868.007,604.024L867.956,604.024L857.976,606.698L857.976,662.698L868.276,659.938L868.276,633.368L883.157,629.38L883.157,655.951L893.457,653.191L893.457,597.191L883.157,599.951ZM868.276,611.199L868.276,626.358L883.157,622.371L883.157,607.212L868.276,611.199Z" style="fill:rgb(1,0,0);"/>
            </g>
            <g id="M" transform="matrix(0.732054,0,0,0.732054,910.867,313.03)">
                <path d="M809.742,675.622L809.742,626.867L817.863,624.691L817.863,673.447L828.163,670.687L828.163,621.931L836.793,619.619L836.793,668.374L847.093,665.614L847.093,609.614L799.442,622.382L799.442,678.382L809.742,675.622Z" style="fill:rgb(1,0,0);"/>
            </g>
            <g id="H" transform="matrix(0.732054,0,0,0.732054,910.867,313.03)">
                <path d="M776.906,628.421L776.906,650.544L762.732,654.342L762.732,632.219L752.432,634.979L752.432,690.979L762.732,688.219L762.732,661.589L776.906,657.791L776.906,684.421L787.206,681.661L787.206,625.661L776.906,628.421Z" style="fill:rgb(1,0,0);"/>
            </g>
            <g id="S" transform="matrix(0.732054,0,0,0.732054,910.867,313.03)">
                <path d="M705.009,676.911L705.009,647.686L740.555,638.161L740.555,645.406L715.261,652.183L715.261,667.155L740.555,660.377L740.555,667.387L740.541,667.391L740.541,694.165L730.241,696.925C730.241,696.925 730.241,696.922 730.241,696.922L705.009,703.683L705.009,695.683L730.241,688.922L730.241,670.151L705.009,676.911Z" style="fill:rgb(1,0,0);"/>
            </g>
            <g id="I" transform="matrix(0.732054,0,0,0.732054,910.867,313.03)">
                <path d="M692.545,707.025L682.245,709.785L682.245,653.785L692.545,651.025L692.545,707.025Z"/>
            </g>
            <g id="L" transform="matrix(0.732054,0,0,0.732054,910.867,313.03)">
                <path d="M652.67,709.708L674.872,703.758L674.872,711.73L652.67,717.679L652.67,717.71L642.37,720.47L642.37,664.47L652.67,661.71L652.67,709.708Z" style="fill:rgb(1,0,0);"/>
            </g>
            <g id="G" transform="matrix(0.732054,0,0,0.732054,910.867,313.03)">
                <path d="M593.885,733.461L629.398,723.945L629.398,690.301L612.396,694.857L612.396,701.867L619.098,700.071L619.098,718.703L604.185,722.699L604.185,681.948L629.398,675.192L629.398,667.945L593.885,677.461L593.885,733.461Z" style="fill:rgb(1,0,0);"/>
            </g>
            <g id="N1" serif:id="N" transform="matrix(0.732054,0,0,0.732054,910.867,313.03)">
                <path d="M555.316,743.796L555.316,695.04L570.197,691.053L570.197,739.808L580.497,737.048L580.497,681.048L545.016,690.556L545.016,746.556L555.316,743.796Z" style="fill:rgb(1,0,0);"/>
            </g>
            <g id="E" transform="matrix(0.732054,0,0,0.732054,910.867,313.03)">
                <path d="M508.461,716.2L508.461,700.35L498.161,703.11L498.161,759.11L508.461,756.35L508.461,756.314L533.585,749.582L533.585,740.939L508.461,747.671L508.461,724.483L524.594,720.16L524.594,711.878L508.461,716.2Z" style="fill:rgb(1,0,0);"/>
            </g>
        </g>
        <g id="FLYING" transform="matrix(1.36602,0,0,1.36602,-444.776,-790.095)">
            <g id="G1" serif:id="G" transform="matrix(0.732054,0,0,0.732054,910.867,313.03)">
                <path d="M459.984,713.34L424.47,722.856L424.47,778.856L459.984,769.34L459.984,735.823L442.981,740.379L442.981,747.389L449.684,745.593L449.684,764.225L434.77,768.221L434.77,727.34L459.984,720.584L459.984,713.34Z" style="fill:rgb(1,0,0);"/>
            </g>
            <g id="N2" serif:id="N" transform="matrix(0.732054,0,0,0.732054,910.867,313.03)">
                <path d="M400.903,729.171L400.903,729.184L385.752,733.244L385.701,733.244L375.721,735.918L375.721,791.918L386.021,789.158L386.021,740.419L400.903,736.431L400.903,785.171L411.203,782.411L411.203,726.411L400.903,729.171Z" style="fill:rgb(1,0,0);"/>
            </g>
            <g id="I1" serif:id="I" transform="matrix(0.732054,0,0,0.732054,910.867,313.03)">
                <path d="M364.13,739.024L353.83,741.784L353.83,797.784L364.13,795.024L364.13,739.024Z"/>
            </g>
            <g id="Y" transform="matrix(0.732054,0,0,0.732054,910.867,313.03)">
                <path d="M340.948,745.235L330.648,747.995L330.648,770.356L320.285,773.132L320.285,750.772L309.985,753.532L309.985,782.902L320.343,780.127L320.343,806.757L330.643,803.997L330.643,777.367L340.948,774.606L340.948,745.235Z" style="fill:rgb(1,0,0);"/>
            </g>
            <g id="L1" serif:id="L" transform="matrix(0.732054,0,0,0.732054,912.037,312.715)">
                <path d="M281.701,809.111L303.492,803.272L303.492,811.272L271.401,819.87L271.401,763.87L281.701,761.111L281.701,809.111Z" style="fill:rgb(1,0,0);"/>
            </g>
            <g id="F" transform="matrix(0.732054,0,0,0.732054,912.615,312.56)">
                <path d="M245.729,786.928L260.906,782.861L260.906,791.144L245.729,795.21L245.729,826.749L235.429,829.509L235.429,773.509L245.729,770.749L245.729,786.928Z" style="fill:rgb(1,0,0);"/>
            </g>
        </g>
        <g id="THE" transform="matrix(1.36602,0,0,1.36602,-444.776,-790.095)">
            <g id="E1" serif:id="E" transform="matrix(0.732054,0,0,0.732054,910.867,313.03)">
                <path d="M204.051,781.917L204.051,789.161L183.979,794.539L183.979,809.418L197.147,805.89L197.147,813.137L183.979,816.665L183.979,835.295L204.051,829.917L204.051,837.917L173.651,846.062L173.651,790.062L204.051,781.917ZM210.363,836.226L210.133,836.287L210.133,835.366L210.363,836.226Z" style="fill:rgb(1,0,0);"/>
            </g>
            <g id="H1" serif:id="H" transform="matrix(0.732054,0,0,0.732054,910.867,313.03)">
                <path d="M149.054,796.653L149.054,818.777L134.88,822.574L134.88,800.451L124.58,803.211L124.58,859.211L134.88,856.451L134.88,829.821L149.054,826.023L149.054,852.653L159.354,849.893L159.354,793.893L149.054,796.653Z" style="fill:rgb(1,0,0);"/>
            </g>
            <g id="T" transform="matrix(0.732054,0,0,0.732054,910.867,313.03)">
                <path d="M106.636,864.019L96.336,866.779L96.336,810.779L106.636,808.019L106.636,864.019Z"/>
            </g>
        </g>
        <g id="Top-Bar" serif:id="Top Bar" transform="matrix(1,0,0,1,799.487,-362.49)">
            <path d="M959.14,555.598L959.14,567.591L72.379,805.198L72.379,793.205C72.379,793.205 959.14,555.598 959.14,555.598Z" style="fill:rgb(1,0,0);"/>
        </g>
    </g>
</svg>
